<?xml version="1.0" encoding="UTF-8"?>
<svg id="Calque_1" xmlns="http://www.w3.org/2000/svg" version="1.1" viewBox="0 0 300 300">
  <!-- Generator: Adobe Illustrator 30.1.0, SVG Export Plug-In . SVG Version: 2.1.1 Build 136)  -->
  <defs>
    <style>
      .st0 {
        fill: #1b8089;
      }

      .st1 {
        fill: #fbd03f;
      }

    </style>
  </defs>
  <path class="st0" d="M34.5,230.3l15.9-14.2c1.1,2.4,4.5,4.6,6,6.7,5.3,7.2,11.9,13.3,19.8,17.5s21.5,4.2,29.3-3.3c6.1-5.9,8.7-13.8,9.3-22.2l3.8-48.2c-1.9-.4-3.4-.3-5.4-.3-8.9,0-16.1-6.8-16.2-15.6s6.7-15.9,15.4-16,5.5.1,8.5,0l1.7-19.1c.7-7.9,2-15.3,4.9-22.9,10.2-27.2,37.9-44.6,66.8-41.9,7.2.7,12.4,6.2,13.5,11.9s-1.6,13.1-7.7,16.6-6.6,2.5-10.1,2.6c-15.7.5-27.7,11.2-30.3,26.7-1.5,8.6-2,17.1-2.6,26,3.6.5,6.8,0,10.2.3,8.7.5,14.9,7.1,15.2,15.3s-5.8,15.9-14.5,16.1l-14.1.3-1.1,16.3c-1.5,23.6-1.1,50.7-13.9,70.8-12,18.9-34.2,26.7-55.5,20-19.2-6.1-36.9-23.7-48.1-40-.7-1.1-.9-2.2-.8-3.2Z"/>
  <path class="st0" d="M201.8,39.6l15-15c43,20,72.7,62,78.6,108.5,4.3,33.7-3.8,68.2-21.2,96.9-17.9,29.5-45.7,50.9-78.8,60.6s-34.9,10.2-40-3.2-.7-10,2.9-13.6,6.8-4.1,11.2-4.7c28.6-3.5,55.2-16.2,74.6-37.7,32.2-35.6,39.1-90.1,18.1-132.8-10.3-20.9-25.4-38.4-45.6-50.3-4.8-2.9-9.8-6.9-14.8-8.7Z"/>
  <path class="st0" d="M191.9,14.2c-5.8,5.7-11.6,11.5-18,16.6-11.1-1.9-22-1.9-32.8-1.2-59.4,4.1-108.7,51-112,111-1.4,24.9,3.4,39.7,12.3,61.4l-17.2,14.4c-13.1-21.7-19-46-18.5-71.2.9-42.3,21.1-81.1,54.6-106.8,19.9-15.3,42.7-25.4,67.7-28.8s29.9-1.5,44.9.1,12.8,3.1,19,4.5Z"/>
  <ellipse class="st1" cx="191.6" cy="191.2" rx="20.2" ry="20.1"/>
  <path class="st1" d="M216.8,24.5l-15,15c-9.4-3.4-18.5-7.2-27.8-8.8,6.4-5,12.2-10.9,18-16.6,9.4,2.1,16.9,6.7,24.9,10.4Z"/>
  <path class="st1" d="M50.4,216.1l-15.9,14.2c-1,2.2-10.2-13.5-10.2-13.9l17.2-14.4c2.8,4.9,6.8,9.2,9,14.1Z"/>
</svg>
